<?xml version="1.0" encoding="UTF-8" standalone="no"?>
<svg
   xmlns:dc="http://purl.org/dc/elements/1.1/"
   xmlns:cc="http://creativecommons.org/ns#"
   xmlns:rdf="http://www.w3.org/1999/02/22-rdf-syntax-ns#"
   xmlns:svg="http://www.w3.org/2000/svg"
   xmlns="http://www.w3.org/2000/svg"
   xmlns:sodipodi="http://sodipodi.sourceforge.net/DTD/sodipodi-0.dtd"
   xmlns:inkscape="http://www.inkscape.org/namespaces/inkscape"
   id="a87032b8-5b37-4b7e-a4d9-4dbfbe394641"
   data-name="Layer 1"
   width="744.84799"
   height="747.07702"
   viewBox="0 0 744.84799 747.07702"
   version="1.1"
   sodipodi:docname="form.svg"
   inkscape:version="1.0.2-2 (e86c870879, 2021-01-15)">
  <metadata
     id="metadata45">
    <rdf:RDF>
      <cc:Work
         rdf:about="">
        <dc:format>image/svg+xml</dc:format>
        <dc:type
           rdf:resource="http://purl.org/dc/dcmitype/StillImage" />
      </cc:Work>
    </rdf:RDF>
  </metadata>
  <defs
     id="defs43" />
  <sodipodi:namedview
     pagecolor="#ffffff"
     bordercolor="#666666"
     borderopacity="1"
     objecttolerance="10"
     gridtolerance="10"
     guidetolerance="10"
     inkscape:pageopacity="0"
     inkscape:pageshadow="2"
     inkscape:window-width="1440"
     inkscape:window-height="837"
     id="namedview41"
     showgrid="false"
     inkscape:zoom="0.59440063"
     inkscape:cx="288.59967"
     inkscape:cy="268.93095"
     inkscape:window-x="-8"
     inkscape:window-y="-8"
     inkscape:window-maximized="1"
     inkscape:current-layer="a87032b8-5b37-4b7e-a4d9-4dbfbe394641"
     inkscape:document-rotation="0" />
  <path
     id="fa3b9e12-7275-481e-bee9-64fd9595a50d"
     data-name="Path 1"
     d="M 101.38723,614.40197 95.491564,591.15002 A 301.9437,301.9437 0 0 0 63.458116,579.65705 l -0.744149,10.80633 -3.017937,-11.90547 c -13.49983,-3.8591 -22.683956,-5.55686 -22.683956,-5.55686 0,0 12.40248,47.17347 38.42432,83.23772 l 30.317766,5.32588 -23.553021,3.3963 a 122.16076,122.16076 0 0 0 10.532221,11.16402 c 37.85003,35.13317 80.00858,51.25281 94.16268,36.00315 14.1541,-15.24966 -5.05536,-56.09157 -42.9054,-91.22115 -11.73382,-10.8917 -26.47389,-19.63186 -41.22925,-26.51253 z"
     fill="#f2f2f2"
     style="stroke-width:0.898731" />
  <path
     id="bde08021-c30f-4979-a9d8-cb90b72b5ca2"
     data-name="Path 2"
     d="m 157.45543,589.14581 6.97235,-22.95178 a 301.91906,301.91906 0 0 0 -21.47966,-26.3966 l -6.22281,8.86596 3.56976,-11.75179 c -9.56339,-10.27788 -16.54743,-16.47823 -16.54743,-16.47823 0,0 -13.76405,46.7942 -10.13318,91.11689 l 23.20072,20.23042 -21.92182,-9.2677 a 122.15435,122.15435 0 0 0 3.24801,15.0034 c 14.24127,49.64047 41.99857,85.2311 61.99711,79.49361 19.99855,-5.7375 24.66656,-50.62999 10.42528,-100.27046 -4.41457,-15.38896 -12.51572,-30.49033 -21.5902,-44.00634 z"
     fill="#f2f2f2"
     style="stroke-width:0.898731" />
  <path
     id="b3ac2088-de9b-4f7f-bc99-0ed9705c1a9d"
     data-name="Path 22"
     d="M 504.12811,207.84866 H 500.4505 V 107.10098 A 58.312327,58.312327 0 0 0 442.13818,48.788652 H 228.68341 A 58.312327,58.312327 0 0 0 170.37108,107.10098 V 659.8202 a 58.312327,58.312327 0 0 0 58.31233,58.31233 H 442.13818 A 58.312327,58.312327 0 0 0 500.44961,659.8202 V 279.56286 h 3.67761 z"
     fill="#e6e6e6"
     style="stroke-width:0.898731" />
  <path
     id="b2715b96-3117-487c-acc0-20904544b5b7"
     data-name="Path 23"
     d="M 444.49105,63.953829 H 416.63041 A 20.688774,20.688774 0 0 1 397.47307,92.456165 H 275.18731 A 20.688774,20.688774 0 0 1 256.03178,63.953829 h -26.02364 a 43.547085,43.547085 0 0 0 -43.54709,43.547081 v 551.91666 a 43.547085,43.547085 0 0 0 43.54709,43.54708 h 214.48291 a 43.547085,43.547085 0 0 0 43.54709,-43.54708 v 0 -551.91755 A 43.547085,43.547085 0 0 0 444.49105,63.953829 Z"
     fill="#ffffff"
     style="stroke-width:0.898731;fill:#ffffff;fill-opacity:1" />
  <path
     id="b06d66ec-6c84-45dd-8c27-1263a6253192"
     data-name="Path 6"
     d="m 309.91876,283.80937 a 21.962276,21.962276 0 0 1 10.99147,-19.02972 21.973959,21.973959 0 1 0 0,38.05675 21.959499,21.959499 0 0 1 -10.99147,-19.02703 z"
     fill="#cccccc"
     style="stroke-width:0.898731" />
  <path
     id="e73810fe-4cf4-40cc-8c7c-ca544ce30bd4"
     data-name="Path 7"
     d="m 337.54303,283.80937 a 21.961323,21.961323 0 0 1 10.99147,-19.02972 21.973959,21.973959 0 1 0 0,38.05675 21.959499,21.959499 0 0 1 -10.99147,-19.02703 z"
     fill="#cccccc"
     style="stroke-width:0.898731" />
  <circle
     id="a4813fcf-056e-4514-bb8b-e6506f49341f"
     data-name="Ellipse 1"
     cx="364.53998"
     cy="283.80844"
     r="21.973961"
     fill="#119da4"
     style="stroke-width:0.898731" />
  <path
     id="bbe451c3-febc-41ba-8083-4c8307a2e73e"
     data-name="Path 8"
     d="M 401.26392,352.44181 H 273.19483 a 4.6041959,4.6041959 0 0 1 -4.5988,-4.59881 V 219.77392 a 4.6041959,4.6041959 0 0 1 4.5988,-4.5988 h 128.06909 a 4.6041959,4.6041959 0 0 1 4.5988,4.5988 V 347.843 a 4.6041959,4.6041959 0 0 1 -4.5988,4.59881 z M 273.19483,217.01572 a 2.7617986,2.7617986 0 0 0 -2.7591,2.7591 v 128.06909 a 2.7617986,2.7617986 0 0 0 2.7591,2.7591 h 128.06909 a 2.7617986,2.7617986 0 0 0 2.7591,-2.7591 V 219.77482 a 2.7617986,2.7617986 0 0 0 -2.7591,-2.7591 z"
     fill="#cccccc"
     style="stroke-width:0.898731" />
  <rect
     id="bb28937d-932f-4fdf-befe-f406e51091fe"
     data-name="Rectangle 1"
     x="233.4404"
     y="450.61279"
     width="196.41933"
     height="1.8397011"
     fill="#cccccc"
     style="stroke-width:0.898731" />
  <circle
     id="fcef55fc-4968-45b2-93bb-1a1080c85fc7"
     data-name="Ellipse 2"
     cx="239.64343"
     cy="432.92398"
     r="6.2030373"
     fill="#119da4"
     style="stroke-width:0.898731" />
  <rect
     id="ff33d889-4c74-4b91-85ef-b4882cc8fe76"
     data-name="Rectangle 2"
     x="233.4404"
     y="512.63959"
     width="196.41933"
     height="1.8397011"
     fill="#cccccc"
     style="stroke-width:0.898731" />
  <circle
     id="e8fa0310-b872-4adf-aedd-0c6eda09f3b8"
     data-name="Ellipse 3"
     cx="239.64343"
     cy="494.95169"
     r="6.2030373"
     fill="#119da4"
     style="stroke-width:0.898731" />
  <path
     d="m 426.26519,583.27297 h -62.07383 a 4.0487177,4.0487177 0 0 1 -4.0443,-4.04429 v -21.75646 a 4.0487086,4.0487086 0 0 1 4.0443,-4.04429 h 62.07383 a 4.0486997,4.0486997 0 0 1 4.04428,4.04429 v 21.75646 a 4.0487086,4.0487086 0 0 1 -4.04428,4.04429 z"
     fill="#119da4"
     id="path14"
     style="stroke-width:0.898731" />
  <circle
     id="e12ee00d-aa4a-4413-a013-11d20b7f97f7"
     data-name="Ellipse 7"
     cx="259.87744"
     cy="432.92398"
     r="6.2030373"
     fill="#119da4"
     style="stroke-width:0.898731" />
  <circle
     id="f58f497e-6949-45c8-be5f-eee2aa0f6586"
     data-name="Ellipse 8"
     cx="280.11145"
     cy="432.92398"
     r="6.2030373"
     fill="#119da4"
     style="stroke-width:0.898731" />
  <circle
     id="b4d4939a-c6e6-4f4d-ba6c-e8b05485017d"
     data-name="Ellipse 9"
     cx="259.87744"
     cy="494.95169"
     r="6.2030373"
     fill="#119da4"
     style="stroke-width:0.898731" />
  <circle
     id="aff120b1-519b-4e96-ac87-836aa55663de"
     data-name="Ellipse 10"
     cx="280.11145"
     cy="494.95169"
     r="6.2030373"
     fill="#119da4"
     style="stroke-width:0.898731" />
  <path
     id="f1094013-1297-477a-ac57-08eac07c4bd5"
     data-name="Path 88"
     d="M 703.92936,720.20951 H 58.653503 c -1.381349,0 -2.500268,-0.49072 -2.500268,-1.09466 0,-0.60395 1.118919,-1.09556 2.500268,-1.09556 H 703.92936 c 1.38046,0 2.50027,0.49071 2.50027,1.09556 0,0.60485 -1.11981,1.09466 -2.50027,1.09466 z"
     fill="#3f3d56"
     style="stroke-width:0.898731" />
  <path
     d="m 544.50408,488.68254 a 9.0715244,9.0715244 0 0 1 1.26788,0.70757 l 40.31013,-17.20456 1.4388,-10.61874 16.10666,-0.0985 -0.95152,24.35398 -53.20472,14.07038 a 9.5336515,9.5336515 0 0 1 -0.40216,1.08598 9.1981465,9.1981465 0 1 1 -4.56507,-12.29614 z"
     fill="#ffb8b8"
     id="path21"
     style="stroke-width:0.898731" />
  <polygon
     points="636.98,735.021 624.72,735.021 618.888,687.733 636.982,687.734 "
     fill="#ffb8b8"
     id="polygon23"
     transform="matrix(0.89873043,0,0,0.89873043,37.012074,48.788644)" />
  <path
     d="m 590.59659,706.22594 h 21.24946 v 13.37928 h -34.62869 v 0 a 13.379274,13.379274 0 0 1 13.37923,-13.37928 z"
     fill="#2f2e41"
     id="path25"
     style="stroke-width:0.898731" />
  <polygon
     points="684.66,731.557 672.459,732.759 662.018,686.271 680.025,684.497 "
     fill="#ffb8b8"
     id="polygon27"
     transform="matrix(0.89873043,0,0,0.89873043,37.012074,48.788644)" />
  <path
     d="m 633.23097,704.97965 21.14713,-2.08292 1.31147,13.31486 -34.46198,3.39439 v 0 a 13.379274,13.379274 0 0 1 12.00338,-14.62633 z"
     fill="#2f2e41"
     id="path29"
     style="stroke-width:0.898731" />
  <circle
     cx="612.55231"
     cy="394.41678"
     r="22.073744"
     fill="#ffb8b8"
     id="circle31"
     style="stroke-width:0.898731" />
  <path
     d="m 596.00474,700.77979 a 4.0180979,4.0180979 0 0 1 -3.96789,-3.32284 c -5.70309,-31.65831 -24.34471,-135.1738 -24.79058,-138.04113 a 1.2823445,1.2823445 0 0 1 -0.014,-0.19924 v -7.71819 a 1.3382096,1.3382096 0 0 1 0.25101,-0.78376 l 2.46274,-3.44923 a 1.328728,1.328728 0 0 1 1.02774,-0.56171 c 14.04003,-0.65824 60.02097,-2.58735 62.24235,0.18784 v 0 c 2.23102,2.78922 1.44288,11.24027 1.26209,12.90609 l 0.009,0.17377 20.65763,132.10899 a 4.0554132,4.0554132 0 0 1 -3.33865,4.61477 l -12.90257,2.12571 a 4.0634029,4.0634029 0 0 1 -4.51647,-2.77957 c -3.99075,-12.75162 -17.37164,-55.6476 -22.00925,-72.246 a 0.4486642,0.4486642 0 0 0 -0.88117,0.12464 c 0.2317,15.82257 0.79165,56.1917 0.98474,70.13432 l 0.021,1.50169 a 4.060563,4.060563 0 0 1 -3.67831,4.07676 l -12.44179,1.13043 c -0.12642,0.0114 -0.25283,0.0166 -0.37743,0.0166 z"
     fill="#2f2e41"
     id="path33"
     style="stroke-width:0.898731" />
  <path
     id="ae7af94f-88d7-4204-9f07-e3651de85c05"
     data-name="Path 99"
     d="m 598.54324,425.17004 c -3.85226,2.28997 -6.15734,6.49821 -7.47992,10.78036 a 102.16857,102.16857 0 0 0 -4.3898,24.40901 l -1.398,24.80515 -17.30512,65.76001 c 14.99864,12.69071 23.65047,9.80653 43.84051,-0.5741 20.19004,-10.38062 22.49722,3.46117 22.49722,3.46117 l 4.03741,-55.95351 5.76839,-61.14272 a 27.109467,27.109467 0 0 0 -4.36912,-4.2008 44.629587,44.629587 0 0 0 -38.14417,-8.08442 z"
     fill="#119da4"
     style="stroke-width:0.898731;fill:#ffffff;fill-opacity:1" />
  <path
     d="m 592.92233,501.96356 a 9.459686,9.459686 0 0 1 1.34864,0.63261 l 39.85718,-19.94929 0.66147,-10.8077 16.44119,-1.13354 0.88113,24.63653 -53.26402,17.61456 a 9.4328948,9.4328948 0 1 1 -5.92559,-10.99317 z"
     fill="#ffb8b8"
     id="path36"
     style="stroke-width:0.898731" />
  <path
     id="a6768b0e-63d0-4b31-8462-9b2e0b00f0fd"
     data-name="Path 101"
     d="m 643.82543,436.99528 c 9.80651,3.46116 11.5339,40.95846 11.5339,40.95846 -11.53673,-6.34536 -25.3814,4.03816 -25.3814,4.03816 0,0 -2.88416,-9.80654 -6.34534,-22.49723 a 22.04574,22.04574 0 0 1 4.61441,-20.76629 c 0,0 5.77192,-5.19637 15.57843,-1.7331 z"
     fill="#119da4"
     style="stroke-width:0.898731;fill:#ffffff" />
  <path
     id="bfd7963f-0cf8-4885-9d3a-2c00bccda2e3"
     data-name="Path 102"
     d="m 632.34478,400.25428 c -2.75011,-2.20042 -6.50246,1.79903 -6.50246,1.79903 l -2.20046,-19.80218 c 0,0 -13.75142,1.64729 -22.55229,-0.54967 -8.80086,-2.19695 -10.17591,7.97635 -10.17591,7.97635 a 70.622039,70.622039 0 0 1 -0.27485,-12.37634 c 0.54964,-4.95055 7.70066,-9.90109 20.35184,-13.20174 12.65117,-3.30066 19.25162,11.00132 19.25162,11.00132 8.80183,4.39998 4.85262,27.35369 2.10251,25.15323 z"
     fill="#2f2e41"
     style="stroke-width:0.898731" />
</svg>
