<?xml version="1.0" encoding="UTF-8" standalone="no"?>
<svg
   xmlns:dc="http://purl.org/dc/elements/1.1/"
   xmlns:cc="http://creativecommons.org/ns#"
   xmlns:rdf="http://www.w3.org/1999/02/22-rdf-syntax-ns#"
   xmlns:svg="http://www.w3.org/2000/svg"
   xmlns="http://www.w3.org/2000/svg"
   xmlns:sodipodi="http://sodipodi.sourceforge.net/DTD/sodipodi-0.dtd"
   xmlns:inkscape="http://www.inkscape.org/namespaces/inkscape"
   id="afcc22ce-1409-4252-9890-ce12c9ce7cb3"
   data-name="Layer 1"
   width="910.90802"
   height="704.99598"
   viewBox="0 0 910.90802 704.99598"
   version="1.1"
   sodipodi:docname="hero2.svg"
   inkscape:version="1.0.2-2 (e86c870879, 2021-01-15)">
  <metadata
     id="metadata69">
    <rdf:RDF>
      <cc:Work
         rdf:about="">
        <dc:format>image/svg+xml</dc:format>
        <dc:type
           rdf:resource="http://purl.org/dc/dcmitype/StillImage" />
      </cc:Work>
    </rdf:RDF>
  </metadata>
  <defs
     id="defs67" />
  <sodipodi:namedview
     pagecolor="#ffffff"
     bordercolor="#666666"
     borderopacity="1"
     objecttolerance="10"
     gridtolerance="10"
     guidetolerance="10"
     inkscape:pageopacity="0"
     inkscape:pageshadow="2"
     inkscape:window-width="1440"
     inkscape:window-height="837"
     id="namedview65"
     showgrid="false"
     inkscape:zoom="0.44539262"
     inkscape:cx="223.05129"
     inkscape:cy="391.88498"
     inkscape:window-x="-8"
     inkscape:window-y="-8"
     inkscape:window-maximized="1"
     inkscape:current-layer="afcc22ce-1409-4252-9890-ce12c9ce7cb3" />
  <ellipse
     cx="620.13367"
     cy="516.35944"
     rx="41.728653"
     ry="85.143318"
     fill="#3f3d56"
     id="ellipse2"
     style="stroke-width:0.860336" />
  <path
     d="m 616.28016,655.72532 c 16.71275,-100.27338 0.16825,-200.1845 -7.8e-4,-201.18115 l -3.25094,0.55068 c 0.16825,0.99187 16.61775,100.37804 -8e-4,200.08946 z"
     fill="#cacaca"
     id="path4"
     style="stroke-width:0.860336" />
  <rect
     x="-167.31184"
     y="749.33594"
     width="3.2978306"
     height="42.792725"
     transform="rotate(-61.8584)"
     fill="#cacaca"
     id="rect6"
     style="stroke-width:0.860336" />
  <rect
     x="298.76102"
     y="759.1933"
     width="42.794193"
     height="3.2978306"
     transform="rotate(-28.15796)"
     fill="#cacaca"
     id="rect8"
     style="stroke-width:0.860336" />
  <ellipse
     cx="720.39526"
     cy="381.60794"
     rx="81.616325"
     ry="166.53033"
     fill="#e6e6e6"
     id="ellipse10"
     style="stroke-width:0.860336" />
  <path
     d="m 711.30437,653.9328 c 32.64458,-195.8644 0.3293,-391.01548 -7.9e-4,-392.96378 l -3.25094,0.55066 c 0.32929,1.94351 32.54961,196.56968 -7.8e-4,391.87211 z"
     fill="#cacaca"
     id="path12"
     style="stroke-width:0.860336" />
  <rect
     x="-3.9084735"
     y="734.9679"
     width="3.2978306"
     height="83.699585"
     transform="rotate(-61.8584)"
     fill="#cacaca"
     id="rect14"
     style="stroke-width:0.860336" />
  <rect
     x="446.63559"
     y="700.07764"
     width="83.699638"
     height="3.2978306"
     transform="rotate(-28.15742)"
     fill="#cacaca"
     id="rect16"
     style="stroke-width:0.860336" />
  <path
     d="M 530.84158,654.45608 H 96.719419 a 6.0293881,6.0293881 0 0 1 -6.02236,-6.02235 V 374.11936 a 6.0291042,6.0291042 0 0 1 6.02236,-6.02235 H 530.84158 a 6.0293796,6.0293796 0 0 1 6.02235,6.02235 v 274.31437 a 6.0296463,6.0296463 0 0 1 -6.02235,6.02235 z"
     fill="#e4e4e4"
     id="path18"
     style="stroke-width:0.860336" />
  <path
     d="m 136.64269,401.3384 a 2.5838293,2.5838293 0 0 0 -2.58101,2.58101 v 214.71512 a 2.5838293,2.5838293 0 0 0 2.58101,2.581 H 490.9183 a 2.5838293,2.5838293 0 0 0 2.58101,-2.581 V 403.91941 a 2.5838293,2.5838293 0 0 0 -2.58101,-2.58101 z"
     fill="#ffffff"
     id="path20"
     style="stroke-width:0.860336" />
  <path
     d="m 494.35943,456.64077 v -13.60606 h -50.1005 v -42.55669 h -13.60616 v 42.55669 h -89.19556 v -42.55669 h -13.60574 v 42.55669 H 190.27881 v -42.55669 h -13.60615 v 42.55669 h -47.57179 v 13.60606 h 47.57179 v 52.91249 h -47.57179 v 13.60605 h 47.57179 v 56.69195 h -47.57179 v 13.60607 H 249.9944 v 28.61809 h 13.60616 v -28.61809 h 64.25088 v 28.61809 h 13.60573 V 593.45733 H 494.35943 V 579.85126 H 341.45721 v -56.69195 h 152.90222 v -13.60605 h -50.1005 v -52.91249 z m -166.50796,0 v 16.62967 H 190.27881 V 456.64077 Z M 190.27881,486.8765 h 137.57266 v 22.67673 H 190.27881 Z m 0,92.97476 v -56.69195 h 59.71562 v 56.69195 z m 137.57266,0 h -64.25088 v -56.69195 h 64.25088 z m 102.8013,-70.29803 h -89.19556 v -52.91246 h 89.19556 z"
     fill="#e6e6e6"
     id="path22"
     style="stroke-width:0.860336" />
  <circle
     cx="334.65433"
     cy="518.07697"
     r="17.385511"
     fill="#119da4"
     id="circle24"
     style="stroke-width:0.860336" />
  <polygon
     points="0,704.996 0,702.814 910.908,702.814 910.513,704.996 "
     fill="#cacaca"
     id="polygon26"
     transform="matrix(0.86033581,0,0,0.86033581,20.206891,49.394622)" />
  <circle
     cx="336.73822"
     cy="307.55289"
     r="107.24551"
     fill="#119da4"
     id="circle28"
     style="stroke-width:0.860336" />
  <polygon
     points="407.705,434.964 369.135,502.707 329.753,435.433 290.371,368.159 368.323,367.69 446.275,367.221 "
     fill="#119da4"
     id="polygon30"
     transform="matrix(0.86033581,0,0,0.86033581,20.206891,49.394622)" />
  <circle
     cx="337.59909"
     cy="306.87827"
     r="38.478081"
     fill="#ffffff"
     id="circle32"
     style="stroke-width:0.860336" />
  <path
     d="m 334.25758,49.945684 c 0,0 -22.94827,-6.464313 -29.73579,24.887562 -6.78752,31.351884 -2.47641,27.401704 -2.47641,27.401704 l 51.22956,-5.97949 c 0,0 15.40505,-36.77495 -19.01736,-46.309776 z"
     fill="#2f2e41"
     id="path34"
     style="stroke-width:0.860336" />
  <path
     d="m 300.88405,187.48731 c 0,0 -34.62122,1.60259 -28.62568,15.19242 q 0.63572,1.44097 1.18368,2.70013 a 243.06342,243.06342 0 0 0 14.76673,28.58298 l 21.27864,35.25637 7.74302,-4.30167 -21.78948,-56.64194 19.58533,-1.5988 z"
     fill="#ffb6b6"
     id="path36"
     style="stroke-width:0.860336" />
  <path
     d="m 392.16846,201.88035 11.19161,24.38174 c 0,0 8.39368,8.3937 17.58679,41.96854 9.19312,33.57484 11.19161,32.37575 11.19161,32.37575 l -9.08673,3.02626 -37.27857,-67.77774 -18.38623,-23.1826 5.5958,-12.39072 z"
     fill="#ffb6b6"
     id="path38"
     style="stroke-width:0.860336" />
  <path
     d="m 378.57869,173.9013 16.08197,29.93239 c 0,0 36.46116,71.64584 32.69276,71.40787 -4.23606,-0.2675 -16.13442,4.67017 -19.78772,9.46369 -1.76332,2.31367 -27.53075,-54.20115 -36.58138,-66.83684 l -19.58534,-15.18863 c 0,0 -55.60879,9.35942 -55.67693,6.31592 -0.0334,-1.49082 18.41094,34.27777 14.6257,32.69277 -4.31201,-1.80556 -14.45574,6.98055 -18.92739,5.16201 -1.845,-0.75034 -14.88171,-32.35848 -20.15904,-45.31062 a 7.0100935,7.0100935 0 0 1 3.24325,-8.87055 c 3.96607,-2.06264 59.07225,-14.64569 59.07225,-14.64569 l -0.96374,-4.92169 3.99703,-7.99402 z"
     fill="#2f2e41"
     id="path40"
     style="stroke-width:0.860336" />
  <circle
     cx="-29.200422"
     cy="339.27234"
     r="15.588339"
     transform="rotate(-80.78268)"
     fill="#ffb6b6"
     id="circle42"
     style="stroke-width:0.860336" />
  <path
     d="m 380.03495,176.30294 c 0.86076,2.58227 -4.71387,4.06556 -12.48405,2.61463 -6.7229,-1.25506 -14.08143,-2.74594 -19.88513,-3.95303 -6.21533,-1.29502 -10.65595,-2.26229 -10.65595,-2.26229 0,0 -1.5988,9.9925 -6.79492,8.79339 -4.47663,-1.03123 -17.85455,-47.76019 -21.47191,-60.67452 a 4.4925015,4.4925015 0 0 1 1.98651,-5.04823 l 18.3742,-11.21964 c 0,0 12.66251,-4.34874 17.27906,-4.47263 4.61653,-0.12389 12.61055,-1.32301 12.61055,-1.32301 0,0 9.1931,0.7994 10.79195,7.59429 1.59885,6.7949 8.27028,47.08253 8.39369,56.75747 0.13533,10.61257 -0.725,5.45055 1.856,13.19357 z"
     fill="#cacaca"
     id="path44"
     style="stroke-width:0.860336" />
  <path
     d="m 336.04274,63.145146 c 0,0 -6.46431,17.130404 -22.30187,24.241131 l -2.5857,-15.191113 z"
     fill="#2f2e41"
     id="path46"
     style="stroke-width:0.860336" />
  <ellipse
     cx="345.40353"
     cy="77.17382"
     rx="2.1983643"
     ry="4.1968555"
     fill="#ffb6b6"
     id="ellipse48"
     style="stroke-width:0.860336" />
  <path
     d="m 323.6734,273.21618 -30.90057,14.20621 -0.1797,-0.39084 a 13.238237,13.238237 0 0 1 6.49734,-17.55687 l 7.7e-4,-3.5e-4 18.87305,-8.67661 z"
     fill="#2f2e41"
     id="path50"
     style="stroke-width:0.860336" />
  <path
     d="m 418.4451,301.59787 18.95461,-8.49694 7.8e-4,-3.5e-4 a 13.238245,13.238245 0 0 1 17.49392,6.66497 l 0.17595,0.39255 -31.03423,13.91182 z"
     fill="#2f2e41"
     id="path52"
     style="stroke-width:0.860336" />
  <polygon
     points="406.512,151.124 403.241,104.51 399.035,150.771 "
     opacity="0.2"
     id="polygon54"
     transform="matrix(0.86033581,0,0,0.86033581,20.206891,49.394622)" />
  <path
     d="m 341.90562,213.66025 a 7.8599505,7.8599505 0 0 0 -1.72002,-11.9289 l -13.90202,-70.22573 -15.9645,6.10772 18.68519,67.10903 a 7.9025285,7.9025285 0 0 0 12.90135,8.93788 z"
     fill="#ffb6b6"
     id="path56"
     style="stroke-width:0.860336" />
  <path
     d="m 329.80077,143.34126 -17.52965,3.08753 a 3.5242882,3.5242882 0 0 1 -4.13426,-3.37453 l -0.4838,-17.73903 a 9.7876017,9.7876017 0 0 1 19.28825,-3.33903 l 5.59199,16.78107 a 3.5242796,3.5242796 0 0 1 -2.73248,4.58399 z"
     fill="#cacaca"
     id="path58"
     style="stroke-width:0.860336" />
  <path
     d="m 355.34595,212.42474 a 7.8598902,7.8598902 0 0 0 2.19593,-11.85053 l 9.35071,-70.97519 -17.07999,0.66601 -3.82075,69.55686 a 7.9025285,7.9025285 0 0 0 9.35407,12.60285 z"
     fill="#ffb6b6"
     id="path60"
     style="stroke-width:0.860336" />
  <path
     d="m 366.42883,141.93749 -17.59408,-2.69658 a 3.5242968,3.5242968 0 0 1 -2.83385,-4.52204 l 5.22994,-16.95743 a 9.7876017,9.7876017 0 0 1 19.34042,3.02227 l -0.0843,17.68806 a 3.5242882,3.5242882 0 0 1 -4.0581,3.46572 z"
     fill="#cacaca"
     id="path62"
     style="stroke-width:0.860336" />
</svg>
