<?xml version="1.0" encoding="UTF-8" standalone="no"?>
<svg
   xmlns:dc="http://purl.org/dc/elements/1.1/"
   xmlns:cc="http://creativecommons.org/ns#"
   xmlns:rdf="http://www.w3.org/1999/02/22-rdf-syntax-ns#"
   xmlns:svg="http://www.w3.org/2000/svg"
   xmlns="http://www.w3.org/2000/svg"
   xmlns:sodipodi="http://sodipodi.sourceforge.net/DTD/sodipodi-0.dtd"
   xmlns:inkscape="http://www.inkscape.org/namespaces/inkscape"
   id="b69449d1-5d1b-47ef-955d-97dc06911a02"
   data-name="Layer 1"
   width="602"
   height="535.28379"
   viewBox="0 0 602 535.28379"
   version="1.1"
   sodipodi:docname="hero1.svg"
   inkscape:version="1.0.2-2 (e86c870879, 2021-01-15)">
  <metadata
     id="metadata61">
    <rdf:RDF>
      <cc:Work
         rdf:about="">
        <dc:format>image/svg+xml</dc:format>
        <dc:type
           rdf:resource="http://purl.org/dc/dcmitype/StillImage" />
      </cc:Work>
    </rdf:RDF>
  </metadata>
  <defs
     id="defs59" />
  <sodipodi:namedview
     pagecolor="#ffffff"
     bordercolor="#666666"
     borderopacity="1"
     objecttolerance="10"
     gridtolerance="10"
     guidetolerance="10"
     inkscape:pageopacity="0"
     inkscape:pageshadow="2"
     inkscape:window-width="1440"
     inkscape:window-height="837"
     id="namedview57"
     showgrid="false"
     inkscape:zoom="0.5866047"
     inkscape:cx="125.66537"
     inkscape:cy="503.69328"
     inkscape:window-x="-8"
     inkscape:window-y="-8"
     inkscape:window-maximized="1"
     inkscape:current-layer="b69449d1-5d1b-47ef-955d-97dc06911a02" />
  <path
     d="M 118.64028,397.74633 103.811,388.29938 a 221.31307,221.31307 0 0 1 -0.63741,-24.93719 l 7.69246,1.96535 -7.59261,-4.83685 c 0.41932,-10.28197 1.34804,-17.06439 1.34804,-17.06439 0,0 29.98286,19.47544 49.10515,45.87349 l -3.26078,22.32584 7.7765,-15.61312 a 89.539313,89.539313 0 0 1 5.34994,9.89896 c 15.75508,34.41888 17.28597,67.46653 3.41934,73.81387 -13.86662,6.34734 -37.87974,-16.40912 -53.6348,-50.82804 -4.88424,-10.6702 -7.58026,-22.93855 -8.97726,-34.78929 z"
     fill="#f0f0f0"
     id="path2"
     style="stroke-width:0.810271" />
  <path
     d="M 88.179304,430.96857 70.601627,430.54682 A 221.31762,221.31762 0 0 1 57.165893,409.52894 l 7.600981,-2.29389 -8.999768,-0.21593 c -4.95582,-9.0186 -7.666622,-15.30468 -7.666622,-15.30468 0,0 35.733548,1.17364 65.748266,13.88723 l 8.74892,20.79748 -1.41344,-17.38522 a 89.540367,89.540367 0 0 1 9.69657,5.70858 c 31.27823,21.32032 49.67113,48.81922 41.08161,61.42051 -8.58952,12.60131 -40.90864,5.53313 -72.186889,-15.78715 -9.696561,-6.60951 -18.346001,-15.71819 -25.66756,-25.14085 z"
     fill="#f0f0f0"
     id="path4"
     style="stroke-width:0.810271" />
  <path
     d="m 338.70222,171.18433 -13.7746,-1.62055 -4.86163,42.13409 -12.41238,58.18387 a 8.9107034,8.9107034 0 1 0 9.66865,1.21927 l 12.46702,-34.28475 z"
     fill="#ffb6b6"
     id="path6"
     style="stroke-width:0.810271" />
  <polygon
     points="363.127,466.943 383.799,466.944 383.797,520.968 369.791,520.968 "
     fill="#ffb6b6"
     id="polygon8"
     transform="matrix(0.81027094,0,0,0.81027094,47.73246,49.43704)" />
  <path
     d="m 361.6062,482.56349 -36.5936,-9.3e-4 v -0.46284 a 14.244012,14.244012 0 0 1 14.24325,-14.24302 h 9e-4 l 22.35011,9e-4 z"
     fill="#2f2e41"
     id="path10"
     style="stroke-width:0.810271" />
  <polygon
     points="460.747,464.204 481.044,460.285 491.287,513.329 477.535,515.984 "
     fill="#ffb6b6"
     id="polygon12"
     transform="matrix(0.81027094,0,0,0.81027094,47.73246,49.43704)" />
  <path
     d="m 450.73641,475.62491 -35.92975,6.93858 -0.0877,-0.45446 a 14.244004,14.244004 0 0 1 11.2836,-16.68573 l 8.9e-4,-1.9e-4 21.94468,-4.23775 z"
     fill="#2f2e41"
     id="path14"
     style="stroke-width:0.810271" />
  <path
     d="m 340.91726,102.13593 6.59419,12.65125 49.38662,-10.8928 -5.41013,-24.528857 C 387.20565,59.95007 370.03807,45.928243 350.62301,50.210468 331.20794,54.492692 322.14835,73.469481 326.43065,92.884934 l 7.95841,24.796546 8.05216,-1.77599 z"
     fill="#2f2e41"
     id="path16"
     style="stroke-width:0.810271" />
  <path
     d="m 323.30713,241.6779 c 0,0 -4.86163,24.30813 1.62055,59.96004 6.48217,35.65192 8.1027,51.04708 8.1027,51.04708 0,0 -4.86163,5.6719 -1.62053,8.91298 3.24107,3.24109 0,9.72325 0,9.72325 l 7.29243,78.59628 25.11839,-4.05135 -3.24107,-73.73466 c 0,0 3.24107,-6.48216 1.62053,-8.10271 -1.62053,-1.62053 1.62054,-11.34379 1.62054,-11.34379 l 4.05137,-76.97574 25.11839,84.26817 c 0,0 -2.43081,3.2411 0,5.67191 2.43081,2.43081 7.29244,14.58487 7.29244,14.58487 l 16.20542,56.71896 25.92867,-4.86162 -14.58487,-64.82167 c 0,0 1.62054,-4.05135 -0.81027,-6.48217 a 6.3471683,6.3471683 0 0 1 -1.62055,-5.6719 c 0,0 2.43082,-2.43081 -0.81028,-5.6719 -3.24108,-3.24107 -4.86162,-16.20541 -4.86162,-16.20541 0,0 -2.43081,-86.69899 -10.53352,-91.56062 -8.10271,-4.86163 -85.88872,0 -85.88872,0 z"
     fill="#2f2e41"
     id="path18"
     style="stroke-width:0.810271" />
  <circle
     cx="359.94467"
     cy="84.921997"
     fill="#ffb6b6"
     id="circle20"
     style="stroke-width:0.810271"
     r="22.687586" />
  <path
     d="m 391.91784,113.96352 c 0,0 16.46775,-1.92896 21.32937,2.93267 l -4.86162,98.04277 c 0,0 3.24107,2.43081 1.62053,8.10271 a 23.148388,23.148388 0 0 0 0,11.34379 c 0,0 4.86163,5.6719 2.43082,8.10271 -2.43082,2.43082 -89.94008,0.81027 -89.94008,0.81027 0,0 -3.24108,-5.67189 1.62054,-8.91298 4.86163,-3.24107 2.43081,-12.15407 2.43081,-12.15407 0,0 -1.62053,-2.43081 2.43082,-6.48216 4.05135,-4.05135 7.29244,-37.27247 7.29244,-37.27247 l -10.53353,-40.51354 c 0,0 10.60331,-11.96813 22.72253,-12.87134 z"
     fill="#e6e6e6"
     id="path22"
     style="stroke-width:0.810271" />
  <path
     d="m 338.29116,138.52082 -12.55322,-0.5576 c 0,0 -7.29244,14.58488 -8.1027,27.54921 l -4.46249,48.36359 28.77061,4.30402 z"
     fill="#e6e6e6"
     id="path24"
     style="stroke-width:0.810271" />
  <path
     d="m 340.50753,86.047082 -8.42811,-10.842908 a 8.8406717,8.8406717 0 0 1 6.71083,-10.508597 l 31.83736,-7.022222 a 8.8414657,8.8414657 0 0 1 10.50921,6.71085 l 0.0174,0.07834 -2.27988,13.093314 -0.40039,-0.07162 c -19.75826,-3.522783 -25.38664,-2.283636 -37.64456,8.285498 z"
     fill="#2f2e41"
     id="path26"
     style="stroke-width:0.810271" />
  <path
     d="m 425.29974,259.29338 -1.51906,-63.80093 -1.62055,-45.37517 -19.4465,2.43081 10.44351,108.45134 a 8.9129803,8.9129803 0 1 0 12.1426,-1.70605 z"
     fill="#ffb6b6"
     id="path28"
     style="stroke-width:0.810271" />
  <path
     d="m 399.06148,118.26404 14.18573,-1.36785 c 0,0 2.43081,0 4.86162,8.1027 2.43081,8.10271 15.79429,93.73876 15.79429,93.73876 l -29.5689,2.68348 z"
     fill="#e6e6e6"
     id="path30"
     style="stroke-width:0.810271" />
  <path
     d="m 310.92669,219.50022 h -1.89595 v -51.939 a 30.060865,30.060865 0 0 0 -30.06085,-30.0609 H 168.93005 a 30.060865,30.060865 0 0 0 -30.06094,30.06082 v 284.94144 a 30.060882,30.060882 0 0 0 30.06085,30.06091 H 278.96974 A 30.06089,30.06089 0 0 0 309.03071,452.5027 V 256.47129 h 1.89598 z"
     fill="#3f3d56"
     id="path32"
     style="stroke-width:0.810271" />
  <path
     d="m 280.18274,145.32113 h -14.36383 a 10.665524,10.665524 0 0 1 -9.87482,14.69361 h -63.0404 a 10.665524,10.665524 0 0 1 -9.87484,-14.69363 H 169.613 a 22.449132,22.449132 0 0 0 -22.44915,22.4491 v 284.52334 a 22.449132,22.449132 0 0 0 22.44912,22.44915 h 110.56977 a 22.449132,22.449132 0 0 0 22.44915,-22.44911 v 0 -284.52336 a 22.449107,22.449107 0 0 0 -22.44915,-22.4491 z"
     fill="#ffffff"
     id="path34"
     style="stroke-width:0.810271" />
  <path
     d="m 207.14824,248.7233 3.05739,10.59096 39.07079,-0.68927 -0.34235,-19.40527 c -0.27098,-15.35998 -11.12638,-28.60761 -26.48603,-28.33664 -15.35965,0.27097 -25.12608,13.25624 -24.8551,28.6162 l 2.23132,19.99813 6.37021,-0.11238 z"
     fill="#2f2e41"
     id="path36"
     style="stroke-width:0.810271" />
  <circle
     cx="224.19397"
     cy="238.59909"
     fill="#ffb6b6"
     id="circle38"
     style="stroke-width:0.810271"
     r="17.530073" />
  <path
     d="m 259.08717,265.93642 -0.39722,7.37347 a 46.938022,46.938022 0 0 1 -65.0563,2.51994 c -0.40512,-0.35652 -0.80235,-0.72925 -1.19127,-1.11007 2.43082,-2.4146 9.14008,-8.3782 16.58643,-8.92919 l 33.57757,-2.11484 c 0,0 12.72102,-1.49086 16.48079,2.26069 z"
     fill="#e4e4e4"
     id="path40"
     style="stroke-width:0.810271" />
  <path
     d="m 243.38421,226.28987 a 6.7991131,6.7991131 0 0 0 -1.2075,-3.75155 c -0.0807,-0.11343 -0.16181,-0.21876 -0.24291,-0.32411 a 6.8312971,6.8312971 0 0 0 -5.47764,-2.61717 l -12.59955,0.22688 -12.59161,0.21877 a 6.8221167,6.8221167 0 0 0 -6.68473,6.92782 l 2.99815,6.03651 1.72578,3.46796 0.28368,-0.16206 c 10.89791,-6.12564 15.35439,-6.20667 29.77745,-0.51046 l 0.2916,0.11344 1.1426,-2.92508 2.59263,-6.63612 z"
     fill="#2f2e41"
     id="path42"
     style="stroke-width:0.810271" />
  <path
     d="m 261.92312,269.59076 a 47.496907,47.496907 0 0 1 -13.013,11.48964 l -0.78575,-14.08251 10.9628,-1.06146 c 0,0 1.31274,-10e-6 2.83595,3.65433 z"
     fill="#e4e4e4"
     id="path44"
     style="stroke-width:0.810271" />
  <path
     d="m 224.85323,288.51056 a 47.658719,47.658719 0 0 1 -31.75764,-12.07493 c -0.41306,-0.3632 -0.82095,-0.74579 -1.22016,-1.13708 a 47.31868,47.31868 0 0 1 -14.82819,-34.59398 47.805985,47.805985 0 0 1 95.61197,0 47.291853,47.291853 0 0 1 -10.09753,29.38498 47.770601,47.770601 0 0 1 -37.70845,18.42101 z m 0,-93.99142 a 46.237852,46.237852 0 0 0 -46.18545,46.18543 45.720145,45.720145 0 0 0 14.33305,33.42803 c 0.38713,0.37902 0.77368,0.74183 1.16813,1.08882 a 46.240647,46.240647 0 0 0 67.11559,-6.12966 45.683075,45.683075 0 0 0 9.75412,-28.38719 46.237852,46.237852 0 0 0 -46.18544,-46.18543 z"
     fill="#3f3d56"
     id="path46"
     style="stroke-width:0.810271" />
  <path
     d="m 267.8296,354.78874 h -84.2183 a 6.394735,6.394735 0 1 1 0,-12.78947 h 84.2183 a 6.394735,6.394735 0 1 1 0,12.78947 z"
     fill="#119da4"
     id="path48"
     style="stroke-width:0.810271" />
  <path
     d="m 267.8296,375.04551 h -84.2183 a 6.3947311,6.3947311 0 1 1 0,-12.78946 h 84.2183 a 6.3947311,6.3947311 0 1 1 0,12.78946 z"
     fill="#119da4"
     id="path50"
     style="stroke-width:0.810271" />
  <path
     d="m 247.32756,334.28588 h -43.21337 a 6.394735,6.394735 0 1 1 0,-12.78947 h 43.21337 a 6.394735,6.394735 0 0 1 0,12.78947 z"
     fill="#119da4"
     id="path52"
     style="stroke-width:0.810271" />
  <path
     d="M 534.70529,483.16193 H 48.54273 a 0.81027094,0.81027094 0 0 1 0,-1.62054 h 486.16256 a 0.81027094,0.81027094 0 0 1 0,1.62054 z"
     fill="#cacaca"
     id="path54"
     style="stroke-width:0.810271" />
</svg>
